<?xml version="1.0" standalone="no"?><!DOCTYPE svg PUBLIC "-//W3C//DTD SVG 1.1//EN" "http://www.w3.org/Graphics/SVG/1.1/DTD/svg11.dtd"><svg t="1639553751743" class="icon" viewBox="0 0 1073 1024" version="1.1" xmlns="http://www.w3.org/2000/svg" p-id="9958" xmlns:xlink="http://www.w3.org/1999/xlink" width="209.5703125" height="200"><defs><style type="text/css"></style></defs><path d="M1017.256585 893.627317H706.310244V349.658537a83.918049 83.918049 0 0 0-24.97561-59.691708 84.917073 84.917073 0 0 0-59.691707-24.975609h-214.040976A84.417561 84.417561 0 0 0 323.18439 349.658537v141.361951a43.207805 43.207805 0 0 1-43.207805 43.207805h-174.829268a43.207805 43.207805 0 0 1-43.207805-43.207805V83.918049A61.44 61.44 0 0 1 123.379512 22.478049h832.437073a61.44 61.44 0 0 1 61.44 61.44z m-260.995122-49.951219h211.043903V83.918049a11.48878 11.48878 0 0 0-11.488781-11.488781H123.379512a11.48878 11.48878 0 0 0-11.48878 11.488781v401.607805h161.342439V349.658537a134.618537 134.618537 0 0 1 134.36878-134.368781h214.290732A134.36878 134.36878 0 0 1 756.261463 349.658537z" p-id="9959"></path><path d="M1008.515122 1005.518049h-949.073171a49.95122 49.95122 0 0 1-49.951219-49.95122v-64.187317a49.95122 49.95122 0 0 1 49.951219-49.951219h949.073171a49.95122 49.95122 0 0 1 49.951219 49.951219v64.187317a49.95122 49.95122 0 0 1-49.951219 49.95122z m-949.073171-114.138537v64.187317h949.073171v-64.187317z" p-id="9960"></path><path d="M253.002927 594.919024H139.613659a41.209756 41.209756 0 0 1-41.209757-41.209756V484.526829h195.808781v69.182439a41.209756 41.209756 0 0 1-41.209756 41.209756z m-104.647805-49.951219h95.906341v-10.489756H148.355122z" p-id="9961"></path><path d="M173.580488 585.927805h49.951219v113.88878h-49.951219z" p-id="9962"></path><path d="M289.717073 891.379512H109.642927v-110.641951a37.463415 37.463415 0 0 1 37.463414-37.463415h105.147318a37.463415 37.463415 0 0 1 37.463414 37.463415z m-130.122927-49.951219H239.765854v-48.202927H159.594146z" p-id="9963"></path><path d="M602.161951 891.379512H422.087805v-110.641951a37.463415 37.463415 0 0 1 37.463415-37.463415h105.147317a37.463415 37.463415 0 0 1 37.463414 37.463415z m-130.122927-49.951219h80.171708v-48.202927H472.039024z" p-id="9964"></path></svg>