<?xml version="1.0" standalone="no"?><!DOCTYPE svg PUBLIC "-//W3C//DTD SVG 1.1//EN" "http://www.w3.org/Graphics/SVG/1.1/DTD/svg11.dtd"><svg t="1639553439319" class="icon" viewBox="0 0 1024 1024" version="1.1" xmlns="http://www.w3.org/2000/svg" p-id="4570" xmlns:xlink="http://www.w3.org/1999/xlink" width="200" height="200"><defs><style type="text/css"></style></defs><path d="M623.36 634.88h-230.39999999999998c-15.36 0-28.799999999999997-13.44-28.799999999999997-28.799999999999997s13.44-28.799999999999997 28.799999999999997-28.799999999999997h232.32c15.36 0 28.799999999999997 13.44 28.799999999999997 28.799999999999997s-13.44 28.799999999999997-30.72 28.799999999999997z" p-id="4571"></path><path d="M508.15999999999997 609.92c-7.68 0-17.279999999999998-3.84-21.119999999999997-9.6l-80.64-94.08c-9.6-11.52-9.6-30.72 3.84-40.32 11.52-9.6 30.72-9.6 40.32 3.84l57.599999999999994 69.11999999999999 57.599999999999994-69.11999999999999c9.6-11.52 28.799999999999997-13.44 40.32-3.84s13.44 28.799999999999997 3.84 40.32l-80.64 94.08c-3.84 5.76-13.44 9.6-21.119999999999997 9.6zM623.36 725.12h-230.39999999999998c-15.36 0-28.799999999999997-13.44-28.799999999999997-28.799999999999997s13.44-28.799999999999997 28.799999999999997-28.799999999999997h232.32c15.36 0 28.799999999999997 13.44 28.799999999999997 28.799999999999997s-13.44 28.799999999999997-30.72 28.799999999999997z" p-id="4572"></path><path d="M508.15999999999997 798.08c-15.36 0-28.799999999999997-13.44-28.799999999999997-28.799999999999997v-188.16c0-15.36 13.44-28.799999999999997 28.799999999999997-28.799999999999997s28.799999999999997 13.44 28.799999999999997 28.799999999999997v188.16c0 15.36-13.44 28.799999999999997-28.799999999999997 28.799999999999997z" p-id="4573"></path><path d="M248.95999999999998 968.96c-88.32 0-167.04-59.519999999999996-188.16-145.92-11.52-44.16-15.36-90.24-11.52-140.16C58.879999999999995 531.2 149.12 392.96000000000004 281.6 316.15999999999997c-23.04-30.72-38.4-67.2-44.16-107.52-7.68-63.36 34.559999999999995-119.03999999999999 101.75999999999999-132.48000000000002 23.04-3.84 46.08-3.84 69.11999999999999 1.92C467.84000000000003 35.84000000000003 550.4000000000001 35.84000000000003 609.92 78.07999999999998c48-13.44 92.16-5.76 130.56 26.88 46.08 38.4 44.16 86.39999999999999 38.4 119.03999999999999v3.84l-3.84 7.68c-1.92 7.68-3.84 15.36-9.6 26.88-7.68 17.279999999999998-17.279999999999998 36.48-30.72 53.76 5.76 3.84 11.52 5.76 15.36 7.68C857.5999999999999 383.36 915.2 464 953.5999999999999 596.48c17.279999999999998 63.36 21.119999999999997 130.56 9.6 197.76-3.84 23.04-11.52 57.599999999999994-34.559999999999995 90.24-38.4 53.76-94.08 84.47999999999999-161.28 84.47999999999999h-518.4000000000001z m111.36-606.72s-1.92 0-1.92 1.92c-130.56 57.599999999999994-222.72 186.24-232.32 326.40000000000003-3.84 42.239999999999995 0 80.64 9.6 115.19999999999999 13.44 51.839999999999996 61.44 88.32 115.19999999999999 88.32h518.4000000000001c42.239999999999995 0 72.96-17.279999999999998 97.91999999999999-51.839999999999996 9.6-15.36 17.279999999999998-32.64 21.119999999999997-57.599999999999994 9.6-57.599999999999994 7.68-113.28-7.68-165.11999999999998-32.64-115.19999999999999-76.8-176.64-167.04-226.56-11.52-5.76-42.239999999999995-23.04-55.68-28.799999999999997-3.84-1.92-7.68-3.84-11.52-7.68-13.44-13.44-15.36-34.559999999999995-3.84-49.919999999999995l5.76-5.76 5.76-3.84c21.119999999999997-19.2 34.559999999999995-38.4 42.239999999999995-55.68 3.84-9.6 3.84-13.44 5.76-21.119999999999997l1.92-5.76c3.84-28.799999999999997-1.92-36.48-11.52-44.16-21.119999999999997-17.279999999999998-42.239999999999995-19.2-71.03999999999999-7.68-23.04 9.6-40.32 0-48-7.68-36.48-32.64-94.08-32.64-130.56 0-13.44 11.52-30.72 15.36-48 7.68-13.44-5.76-26.88-7.68-40.32-3.84-21.119999999999997 3.84-42.239999999999995 21.119999999999997-40.32 46.08 3.84 32.64 17.279999999999998 59.519999999999996 40.32 84.47999999999999l11.52 11.52 5.76 5.76c9.6 9.6 13.44 21.119999999999997 9.6 34.559999999999995-1.92 5.76-9.6 15.36-21.119999999999997 21.119999999999997z" p-id="4574"></path></svg>